<mxfile host="Electron" modified="2024-04-04T03:27:46.065Z" agent="Mozilla/5.0 (Windows NT 10.0; Win64; x64) AppleWebKit/537.36 (KHTML, like Gecko) draw.io/24.1.0 Chrome/120.0.6099.109 Electron/28.1.0 Safari/537.36" etag="vNL5EjrffrINYZ0Vmb02" version="24.1.0" type="device">
  <diagram name="페이지-1" id="NZS4hSEcQa_ZoebhE_X3">
    <mxGraphModel dx="1434" dy="836" grid="1" gridSize="10" guides="1" tooltips="1" connect="1" arrows="1" fold="1" page="1" pageScale="1" pageWidth="827" pageHeight="1169" math="0" shadow="0">
      <root>
        <mxCell id="0" />
        <mxCell id="1" parent="0" />
        <mxCell id="Tuj5qgfqHHIqf679dCar-5" style="edgeStyle=orthogonalEdgeStyle;rounded=0;orthogonalLoop=1;jettySize=auto;html=1;entryX=0;entryY=0.5;entryDx=0;entryDy=0;" edge="1" parent="1" source="Tuj5qgfqHHIqf679dCar-1" target="Tuj5qgfqHHIqf679dCar-2">
          <mxGeometry relative="1" as="geometry" />
        </mxCell>
        <mxCell id="Tuj5qgfqHHIqf679dCar-10" style="edgeStyle=orthogonalEdgeStyle;rounded=0;orthogonalLoop=1;jettySize=auto;html=1;entryX=0.5;entryY=0;entryDx=0;entryDy=0;" edge="1" parent="1" source="Tuj5qgfqHHIqf679dCar-1" target="Tuj5qgfqHHIqf679dCar-4">
          <mxGeometry relative="1" as="geometry" />
        </mxCell>
        <mxCell id="Tuj5qgfqHHIqf679dCar-16" value="이동" style="edgeLabel;html=1;align=center;verticalAlign=middle;resizable=0;points=[];" vertex="1" connectable="0" parent="Tuj5qgfqHHIqf679dCar-10">
          <mxGeometry x="-0.1077" y="1" relative="1" as="geometry">
            <mxPoint as="offset" />
          </mxGeometry>
        </mxCell>
        <mxCell id="Tuj5qgfqHHIqf679dCar-18" style="edgeStyle=orthogonalEdgeStyle;rounded=0;orthogonalLoop=1;jettySize=auto;html=1;exitX=0.75;exitY=1;exitDx=0;exitDy=0;entryX=0.5;entryY=0;entryDx=0;entryDy=0;" edge="1" parent="1" source="Tuj5qgfqHHIqf679dCar-1" target="Tuj5qgfqHHIqf679dCar-3">
          <mxGeometry relative="1" as="geometry" />
        </mxCell>
        <mxCell id="Tuj5qgfqHHIqf679dCar-1" value="목록보기" style="whiteSpace=wrap;html=1;aspect=fixed;" vertex="1" parent="1">
          <mxGeometry x="140" y="130" width="80" height="80" as="geometry" />
        </mxCell>
        <mxCell id="Tuj5qgfqHHIqf679dCar-7" style="edgeStyle=orthogonalEdgeStyle;rounded=0;orthogonalLoop=1;jettySize=auto;html=1;entryX=0;entryY=0.5;entryDx=0;entryDy=0;fillColor=#f8cecc;strokeColor=#b85450;" edge="1" parent="1" source="Tuj5qgfqHHIqf679dCar-2" target="Tuj5qgfqHHIqf679dCar-6">
          <mxGeometry relative="1" as="geometry" />
        </mxCell>
        <mxCell id="Tuj5qgfqHHIqf679dCar-2" value="쓰기" style="whiteSpace=wrap;html=1;aspect=fixed;" vertex="1" parent="1">
          <mxGeometry x="480" y="160" width="80" height="80" as="geometry" />
        </mxCell>
        <mxCell id="Tuj5qgfqHHIqf679dCar-21" style="edgeStyle=orthogonalEdgeStyle;rounded=0;orthogonalLoop=1;jettySize=auto;html=1;entryX=0;entryY=0.5;entryDx=0;entryDy=0;" edge="1" parent="1" source="Tuj5qgfqHHIqf679dCar-3" target="Tuj5qgfqHHIqf679dCar-20">
          <mxGeometry relative="1" as="geometry" />
        </mxCell>
        <mxCell id="Tuj5qgfqHHIqf679dCar-22" value="전송" style="edgeLabel;html=1;align=center;verticalAlign=middle;resizable=0;points=[];" vertex="1" connectable="0" parent="Tuj5qgfqHHIqf679dCar-21">
          <mxGeometry x="0.075" y="-1" relative="1" as="geometry">
            <mxPoint as="offset" />
          </mxGeometry>
        </mxCell>
        <mxCell id="Tuj5qgfqHHIqf679dCar-3" value="삭제하기" style="whiteSpace=wrap;html=1;aspect=fixed;" vertex="1" parent="1">
          <mxGeometry x="480" y="300" width="80" height="80" as="geometry" />
        </mxCell>
        <mxCell id="Tuj5qgfqHHIqf679dCar-12" style="edgeStyle=orthogonalEdgeStyle;rounded=0;orthogonalLoop=1;jettySize=auto;html=1;entryX=0;entryY=0.5;entryDx=0;entryDy=0;" edge="1" parent="1" source="Tuj5qgfqHHIqf679dCar-4" target="Tuj5qgfqHHIqf679dCar-11">
          <mxGeometry relative="1" as="geometry">
            <Array as="points">
              <mxPoint x="180" y="480" />
              <mxPoint x="320" y="480" />
              <mxPoint x="320" y="500" />
            </Array>
          </mxGeometry>
        </mxCell>
        <mxCell id="Tuj5qgfqHHIqf679dCar-15" value="전송" style="edgeLabel;html=1;align=center;verticalAlign=middle;resizable=0;points=[];" vertex="1" connectable="0" parent="Tuj5qgfqHHIqf679dCar-12">
          <mxGeometry x="-0.144" relative="1" as="geometry">
            <mxPoint as="offset" />
          </mxGeometry>
        </mxCell>
        <mxCell id="Tuj5qgfqHHIqf679dCar-4" value="수정하기" style="whiteSpace=wrap;html=1;aspect=fixed;" vertex="1" parent="1">
          <mxGeometry x="140" y="340" width="80" height="80" as="geometry" />
        </mxCell>
        <mxCell id="Tuj5qgfqHHIqf679dCar-9" style="edgeStyle=orthogonalEdgeStyle;rounded=0;orthogonalLoop=1;jettySize=auto;html=1;entryX=0.5;entryY=0;entryDx=0;entryDy=0;" edge="1" parent="1" target="Tuj5qgfqHHIqf679dCar-1">
          <mxGeometry relative="1" as="geometry">
            <mxPoint x="180" y="100" as="targetPoint" />
            <mxPoint x="740" y="170" as="sourcePoint" />
            <Array as="points">
              <mxPoint x="740" y="100" />
              <mxPoint x="180" y="100" />
            </Array>
          </mxGeometry>
        </mxCell>
        <mxCell id="Tuj5qgfqHHIqf679dCar-6" value="쓰기" style="whiteSpace=wrap;html=1;aspect=fixed;fillColor=#ffe6cc;strokeColor=#d79b00;" vertex="1" parent="1">
          <mxGeometry x="700" y="160" width="80" height="80" as="geometry" />
        </mxCell>
        <mxCell id="Tuj5qgfqHHIqf679dCar-11" value="수정하기" style="whiteSpace=wrap;html=1;aspect=fixed;fillColor=#ffe6cc;strokeColor=#d79b00;" vertex="1" parent="1">
          <mxGeometry x="350" y="460" width="80" height="80" as="geometry" />
        </mxCell>
        <mxCell id="Tuj5qgfqHHIqf679dCar-20" value="삭제하기" style="whiteSpace=wrap;html=1;aspect=fixed;fillColor=#ffe6cc;strokeColor=#d79b00;" vertex="1" parent="1">
          <mxGeometry x="640" y="300" width="80" height="80" as="geometry" />
        </mxCell>
      </root>
    </mxGraphModel>
  </diagram>
</mxfile>
